<svg xmlns="http://www.w3.org/2000/svg" width="1em" height="1em" viewBox="0 0 24 24">
	<path d="M0 0h24v24H0z" fill="none" />
	<g fill="none" stroke="#6b7280" stroke-linecap="round" stroke-width="1.5">
		<path stroke-linejoin="round" d="M14.98 7.016s.5.5 1 1.5c0 0 1.589-2.5 3-3M9.995 2.021c-2.499-.105-4.429.182-4.429.182c-1.219.088-3.554.77-3.554 4.762c0 3.956-.026 8.834 0 10.779c0 1.188.735 3.96 3.281 4.108c3.095.18 8.67.219 11.228 0c.684-.039 2.964-.576 3.252-3.056c.3-2.57.24-4.355.24-4.78" />
		<path d="M22 7.016c0 2.761-2.24 5-5.005 5a5 5 0 0 1-5.005-5c0-2.762 2.241-5 5.005-5a5 5 0 0 1 5.005 5Zm-15.02 6h4m-4 4h8" />
	</g>
</svg>
