<svg width="730" height="729" viewBox="0 0 730 729" fill="none" xmlns="http://www.w3.org/2000/svg">
    <g clip-path="url(#clip0_54_2)">
      <path d="M251.8 628.7L350.5 727.5H510.7C530.1 727.5 545.9 711.7 545.9 692.3V322.3L251.8 616.5C248.4 619.7 248.3 625.1 251.5 628.5C251.6 628.6 251.7 628.7 251.8 628.7Z" fill="#4B5563"/>
      <path d="M0.600081 217.4V377.6L99.3001 476.3C102.6 479.7 107.9 479.8 111.3 476.5C111.4 476.4 111.4 476.4 111.5 476.3L405.8 182H35.8001C16.3001 182.1 0.500081 197.9 0.600081 217.4Z" fill="#5B626E"/>
      <path d="M370.9 38L133.4 401.5C125.4 413.8 127 430.1 137.4 440.5L289.6 592.7C300 603.1 316.3 604.7 328.6 596.7L692.1 359C715.2 343.8 729.1 318 729.1 290.4V36.9C729.1 17 712.9 0.800049 693 0.800049H439.7C412 0.800049 386.2 14.8 370.9 38Z" fill="#6B7280"/>
      <path d="M54 677.5V549H0.5V728.2H182.4V677.5H54Z" fill="#9CA3AF"/>
      <path d="M546.8 270C596.8 270 637.3 229.5 637.3 179.5C637.3 129.5 596.8 89 546.8 89C496.8 89 456.3 129.5 456.3 179.5C456.3 229.5 496.8 270 546.8 270Z" fill="#D1D5DB"/>
      <path d="M384.8 300.8L191.3 494.3L235.9 538.9L429.4 345.4L384.8 300.8Z" fill="#878F9A"/>
      <path d="M197.4 577.5L235.9 539.1L191.3 494.5L152.8 532.9L197.4 577.5Z" fill="#A1A6AF"/>
    </g>
    <defs>
      <clipPath id="clip0_54_2">
        <rect width="730" height="729" fill="white"/>
      </clipPath>
    </defs>
  </svg>
  