<svg width="724" height="726" viewBox="0 0 724 726" fill="none" xmlns="http://www.w3.org/2000/svg">
    <g clip-path="url(#clip0_52_2)">
      <path d="M513.3 304.1C565.1 304 615.1 323.1 653.7 357.7V30.4C653.7 13.9 640.4 0.5 623.9 0.5H623.8H30.2999C13.7999 0.5 0.399902 13.8 0.399902 30.3V30.4V517C0.399902 533.5 13.6999 546.9 30.1999 546.9H30.2999H305.1C303.5 536.3 302.7 525.7 302.7 515C302.6 398.5 397 304.1 513.3 304.1Z" fill="#4B5563"/>
      <path d="M199.5 55.3H54.2V147.4H199.5V55.3Z" fill="#6B7280"/>
      <path d="M399.3 55.3H254V147.4H399.3V55.3Z" fill="#9CA3AF"/>
      <path d="M199.5 201.2H54.2V293.3H199.5V201.2Z" fill="#D1D5DB"/>
      <path d="M199.5 347.1H54.2V437.9H199.5V347.1Z" fill="#6B7280"/>
      <path d="M399.3 201.2H254V293.3H399.3V201.2Z" fill="#6B7280"/>
      <path d="M599.4 55.3H454.2V147.4H599.5V55.3H599.4Z" fill="#9CA3AF"/>
      <path d="M653.6 516.9V357.7C615 323.1 565 304 513.3 304.1C397 304.1 302.7 398.5 302.7 515C302.7 525.7 303.5 536.3 305.1 546.9H623.8C640.2 546.8 653.6 533.4 653.6 516.9Z" fill="#6B7280"/>
      <path d="M653.6 357.8V517C653.6 533.5 640.2 546.9 623.7 546.9H305C320.3 648.2 407.7 725.9 513.2 725.9C629.6 725.8 723.8 631.4 723.8 514.9C724 454.9 698.4 397.7 653.6 357.8Z" fill="#9CA3AF"/>
      <path d="M621.5 411.2L489.5 543.2L421.7 475.3L381.2 516L449 583.9L492.1 627.1L532.6 586.4L664.6 454.4L621.5 411.2Z" fill="white"/>
    </g>
    <defs>
      <clipPath id="clip0_52_2">
        <rect width="724" height="726" fill="white"/>
      </clipPath>
    </defs>
    </svg>
    